<svg xmlns="http://www.w3.org/2000/svg" viewBox="0 0 900 700">
  <defs>
    <linearGradient id="bg" x1="0" x2="1" y1="0" y2="1">
      <stop stop-color="#fffaf5"/>
      <stop offset="1" stop-color="#ffd7bd"/>
    </linearGradient>
  </defs>
  <rect width="900" height="700" fill="url(#bg)"/>
  <rect x="160" y="460" width="580" height="46" rx="23" fill="#573b34" opacity=".12"/>
  <g transform="translate(170 190)">
    <rect x="18" y="130" width="142" height="135" rx="32" fill="#fff"/>
    <path d="M28 130c25-78 118-76 124 0" fill="#f8d8d0"/>
    <circle cx="82" cy="88" r="18" fill="#b95f68"/>
  </g>
  <g transform="translate(370 150)">
    <rect x="18" y="130" width="142" height="175" rx="32" fill="#fff"/>
    <path d="M28 130c25-78 118-76 124 0" fill="#c89543"/>
    <circle cx="90" cy="88" r="18" fill="#b95f68"/>
  </g>
  <g transform="translate(570 205)">
    <rect x="18" y="130" width="142" height="120" rx="32" fill="#fff"/>
    <path d="M28 130c25-78 118-76 124 0" fill="#f8d8d0"/>
    <circle cx="94" cy="88" r="18" fill="#c89543"/>
  </g>
</svg>
