<svg xmlns="http://www.w3.org/2000/svg" viewBox="0 0 900 700">
  <defs>
    <linearGradient id="bg" x1="0" x2="1" y1="0" y2="1">
      <stop stop-color="#fff7ee"/>
      <stop offset="1" stop-color="#f8d8d0"/>
    </linearGradient>
  </defs>
  <rect width="900" height="700" fill="url(#bg)"/>
  <ellipse cx="452" cy="560" rx="290" ry="55" fill="#573b34" opacity=".12"/>
  <rect x="228" y="254" width="444" height="286" rx="42" fill="#fffaf5"/>
  <rect x="228" y="214" width="444" height="78" rx="39" fill="#573b34"/>
  <path d="M450 214v326" stroke="#f8d8d0" stroke-width="35"/>
  <path d="M300 212c4-86 112-74 150 0-82-5-129 1-150 0Z" fill="#f8d8d0"/>
  <path d="M600 212c-4-86-112-74-150 0 82-5 129 1 150 0Z" fill="#ffd7bd"/>
  <circle cx="333" cy="390" r="34" fill="#f8d8d0"/>
  <circle cx="558" cy="398" r="38" fill="#c89543"/>
  <circle cx="450" cy="442" r="31" fill="#b95f68"/>
</svg>
