<svg xmlns="http://www.w3.org/2000/svg" viewBox="0 0 64 64" role="img" aria-label="cake._.if favicon">
  <defs>
    <linearGradient id="cream" x1="15" y1="16" x2="51" y2="50" gradientUnits="userSpaceOnUse">
      <stop offset="0" stop-color="#fff8f1" />
      <stop offset="1" stop-color="#f2d9c9" />
    </linearGradient>
    <linearGradient id="pink" x1="12" y1="11" x2="50" y2="42" gradientUnits="userSpaceOnUse">
      <stop offset="0" stop-color="#f8bad0" />
      <stop offset="1" stop-color="#c65d7a" />
    </linearGradient>
    <linearGradient id="plate" x1="12" y1="43" x2="56" y2="54" gradientUnits="userSpaceOnUse">
      <stop offset="0" stop-color="#d9e0e2" />
      <stop offset="1" stop-color="#9aa9ae" />
    </linearGradient>
  </defs>
  <circle cx="32" cy="32" r="30" fill="#fffaf6" />
  <ellipse cx="34" cy="50" rx="24" ry="6" fill="url(#plate)" opacity=".9" />
  <path d="M12 27c11-12 27-16 42-9l-8 27c-12 3-25 0-34-8z" fill="url(#cream)" />
  <path d="M12 27c11-12 27-16 42-9l-4 10c-12-5-25-2-36 8z" fill="url(#pink)" />
  <path d="M18 36c9-5 18-6 28-3l-2 7c-9 2-17 1-25-3z" fill="#f4a9bf" />
  <path d="M15 30c10-9 24-13 37-7" fill="none" stroke="#9d4c61" stroke-width="3" stroke-linecap="round" opacity=".4" />
  <path d="M45 18l-8 29" fill="none" stroke="#7d5a50" stroke-width="3" stroke-linecap="round" opacity=".6" />
  <path d="M24 21c2-4 5-4 7 0 2-4 6-3 7 1" fill="none" stroke="#fff7f4" stroke-width="4" stroke-linecap="round" />
  <circle cx="22" cy="18" r="2" fill="#c65d7a" />
  <circle cx="31" cy="16" r="2" fill="#d77b95" />
  <circle cx="39" cy="17" r="2" fill="#b94f6f" />
  <path d="M49 44c5 1 8 4 8 7 0 4-5 7-11 7-5 0-9-2-10-5 6-1 11-4 13-9z" fill="#f4d6cd" />
  <path d="M46 50c3-1 5-2 6-5 2 2 3 5 1 7-2 3-6 3-10 1" fill="none" stroke="#c65d7a" stroke-width="2" stroke-linecap="round" />
</svg>
